<?xml version="1.0" standalone="no"?>
<!DOCTYPE svg PUBLIC "-//W3C//DTD SVG 20010904//EN"
 "http://www.w3.org/TR/2001/REC-SVG-20010904/DTD/svg10.dtd">
<svg version="1.0" xmlns="http://www.w3.org/2000/svg"
 width="700.000000pt" height="700.000000pt" viewBox="0 0 700.000000 700.000000"
 preserveAspectRatio="xMidYMid meet">
<metadata>
Created by potrace 1.14, written by Peter Selinger 2001-2017
</metadata>
<g transform="translate(0.000000,700.000000) scale(0.100000,-0.100000)"
fill="#000000" stroke="none">
<path d="M770 6990 c-121 -16 -148 -22 -210 -41 -124 -39 -218 -97 -316 -194
-81 -80 -97 -103 -142 -195 -51 -106 -78 -202 -90 -320 -9 -88 -9 -5409 0
-5485 28 -227 91 -368 228 -505 104 -104 221 -175 345 -207 147 -38 34 -37
2865 -39 1597 -2 2734 1 2775 7 74 9 143 20 160 23 100 23 249 98 326 163 153
132 250 325 276 548 4 39 8 1285 8 2770 0 2860 1 2768 -45 2921 -20 68 -77
186 -106 222 -11 12 -35 42 -54 66 -87 108 -282 222 -415 243 -16 3 -66 11
-110 18 -65 11 -580 13 -2760 13 -1474 0 -2705 -4 -2735 -8z m1680 -1690 c0
-45 -2 -50 -22 -51 -205 -4 -315 -88 -292 -223 14 -85 107 -357 174 -511 20
-45 15 -32 175 -430 65 -159 142 -351 172 -425 30 -74 111 -274 180 -445 69
-170 129 -317 133 -325 7 -12 10 -10 18 10 10 26 227 550 242 585 5 11 15 36
24 55 8 19 65 157 126 305 61 149 117 284 125 300 48 107 52 76 -50 335 -172
440 -225 554 -297 635 -78 87 -148 120 -280 131 -86 7 -84 6 -82 55 l1 44 881
2 881 3 -2 -50 -1 -50 -45 -1 c-48 -1 -64 -2 -144 -13 -100 -13 -164 -57 -188
-128 -12 -36 -11 -50 8 -122 19 -72 151 -438 187 -520 8 -17 30 -74 49 -126
20 -52 122 -318 227 -590 105 -272 214 -556 242 -630 28 -74 54 -138 57 -143
4 -4 22 32 40 80 18 49 38 102 46 118 7 17 20 53 30 80 9 28 21 59 26 70 5 11
38 97 73 190 35 94 148 391 251 660 233 612 249 659 261 767 3 29 6 55 7 58 4
18 -17 100 -34 130 -40 71 -151 116 -296 119 -33 1 -33 1 -33 51 l0 50 472 -2
472 -3 -1 -27 c-1 -16 -1 -37 -2 -47 -1 -15 -13 -22 -51 -30 -71 -15 -120 -42
-166 -93 -59 -64 -75 -95 -154 -293 -74 -184 -229 -582 -234 -600 -2 -5 -8
-23 -15 -40 -6 -16 -77 -203 -157 -415 -80 -212 -154 -405 -164 -430 -10 -25
-57 -146 -103 -270 -47 -124 -140 -369 -207 -545 -67 -176 -148 -392 -182
-480 -33 -88 -64 -169 -69 -180 -5 -11 -27 -69 -50 -130 -22 -60 -46 -115 -54
-121 -11 -8 -94 -10 -100 -1 -1 1 -23 56 -48 122 -25 66 -65 172 -90 235 -25
63 -194 504 -377 980 -333 868 -344 897 -371 958 l-15 34 -43 -104 c-79 -187
-353 -832 -366 -863 -8 -16 -57 -133 -110 -260 -53 -126 -103 -243 -110 -260
-7 -16 -70 -165 -140 -330 -70 -165 -135 -318 -144 -340 -10 -22 -31 -70 -46
-107 -25 -61 -31 -68 -57 -69 -15 -1 -37 -2 -49 -2 -16 -1 -25 10 -41 48 -11
28 -26 64 -33 80 -7 17 -50 122 -95 235 -45 113 -87 219 -94 235 -43 100 -63
150 -137 335 -45 113 -101 255 -126 315 -25 61 -90 223 -145 360 -55 138 -106
264 -113 280 -8 17 -23 53 -33 80 -43 114 -399 992 -464 1145 -102 240 -168
370 -211 413 -31 31 -106 66 -167 78 l-58 11 1 49 0 49 789 0 788 0 0 -50z"/>
</g>
</svg>
